<mxfile host="app.diagrams.net" agent="Mozilla/5.0 (X11; Linux x86_64) AppleWebKit/537.36 (KHTML, like Gecko) Chrome/130.0.0.0 Safari/537.36" version="26.0.2">
  <diagram name="Page-1" id="qKKdyQ3NPcXyyl0q9MPk">
    <mxGraphModel dx="1444" dy="925" grid="1" gridSize="10" guides="1" tooltips="1" connect="1" arrows="1" fold="1" page="1" pageScale="1" pageWidth="1654" pageHeight="1169" math="0" shadow="0">
      <root>
        <mxCell id="0" />
        <mxCell id="1" parent="0" />
        <mxCell id="UezovyHCdRuaV5dCxhNu-30" style="edgeStyle=orthogonalEdgeStyle;rounded=0;orthogonalLoop=1;jettySize=auto;html=1;exitX=0.5;exitY=0;exitDx=0;exitDy=0;entryX=0.5;entryY=1;entryDx=0;entryDy=0;" edge="1" parent="1" source="UezovyHCdRuaV5dCxhNu-3" target="UezovyHCdRuaV5dCxhNu-29">
          <mxGeometry relative="1" as="geometry" />
        </mxCell>
        <mxCell id="UezovyHCdRuaV5dCxhNu-3" value="TokenEmbedding" style="shape=process;whiteSpace=wrap;html=1;backgroundOutline=1;fillColor=#e1d5e7;strokeColor=#9673a6;" vertex="1" parent="1">
          <mxGeometry x="280" y="663.5" width="120" height="30" as="geometry" />
        </mxCell>
        <mxCell id="UezovyHCdRuaV5dCxhNu-18" style="edgeStyle=orthogonalEdgeStyle;rounded=0;orthogonalLoop=1;jettySize=auto;html=1;exitX=0.5;exitY=0;exitDx=0;exitDy=0;entryX=0.25;entryY=1;entryDx=0;entryDy=0;" edge="1" parent="1" source="UezovyHCdRuaV5dCxhNu-7" target="UezovyHCdRuaV5dCxhNu-17">
          <mxGeometry relative="1" as="geometry">
            <Array as="points">
              <mxPoint x="1000" y="406" />
              <mxPoint x="1030" y="406" />
            </Array>
          </mxGeometry>
        </mxCell>
        <mxCell id="UezovyHCdRuaV5dCxhNu-7" value="&lt;b&gt;Linear&lt;/b&gt;&lt;br&gt;2→768" style="rounded=0;whiteSpace=wrap;html=1;fillColor=#e1d5e7;strokeColor=#9673a6;" vertex="1" parent="1">
          <mxGeometry x="960" y="416" width="80" height="30" as="geometry" />
        </mxCell>
        <mxCell id="UezovyHCdRuaV5dCxhNu-11" style="edgeStyle=orthogonalEdgeStyle;rounded=0;orthogonalLoop=1;jettySize=auto;html=1;exitX=0.5;exitY=0;exitDx=0;exitDy=0;entryX=0.5;entryY=1;entryDx=0;entryDy=0;" edge="1" parent="1" source="UezovyHCdRuaV5dCxhNu-9" target="UezovyHCdRuaV5dCxhNu-7">
          <mxGeometry relative="1" as="geometry" />
        </mxCell>
        <mxCell id="UezovyHCdRuaV5dCxhNu-9" value="Coordinate" style="text;html=1;align=center;verticalAlign=middle;whiteSpace=wrap;rounded=0;fontStyle=1" vertex="1" parent="1">
          <mxGeometry x="960" y="503.5" width="80" height="20" as="geometry" />
        </mxCell>
        <mxCell id="UezovyHCdRuaV5dCxhNu-16" style="edgeStyle=orthogonalEdgeStyle;rounded=0;orthogonalLoop=1;jettySize=auto;html=1;exitX=0.5;exitY=0;exitDx=0;exitDy=0;entryX=0.5;entryY=1;entryDx=0;entryDy=0;" edge="1" parent="1" source="UezovyHCdRuaV5dCxhNu-111" target="UezovyHCdRuaV5dCxhNu-15">
          <mxGeometry relative="1" as="geometry" />
        </mxCell>
        <mxCell id="UezovyHCdRuaV5dCxhNu-10" value="Class" style="text;html=1;align=center;verticalAlign=middle;whiteSpace=wrap;rounded=0;fontStyle=1" vertex="1" parent="1">
          <mxGeometry x="1060" y="503.5" width="80" height="20" as="geometry" />
        </mxCell>
        <mxCell id="UezovyHCdRuaV5dCxhNu-19" style="edgeStyle=orthogonalEdgeStyle;rounded=0;orthogonalLoop=1;jettySize=auto;html=1;exitX=0.5;exitY=0;exitDx=0;exitDy=0;entryX=0.75;entryY=1;entryDx=0;entryDy=0;" edge="1" parent="1" source="UezovyHCdRuaV5dCxhNu-15" target="UezovyHCdRuaV5dCxhNu-17">
          <mxGeometry relative="1" as="geometry">
            <Array as="points">
              <mxPoint x="1100" y="406" />
              <mxPoint x="1070" y="406" />
            </Array>
          </mxGeometry>
        </mxCell>
        <mxCell id="UezovyHCdRuaV5dCxhNu-15" value="&lt;b&gt;Linear&lt;/b&gt;&lt;br&gt;2→768" style="rounded=0;whiteSpace=wrap;html=1;fillColor=#e1d5e7;strokeColor=#9673a6;" vertex="1" parent="1">
          <mxGeometry x="1060" y="416" width="80" height="30" as="geometry" />
        </mxCell>
        <mxCell id="UezovyHCdRuaV5dCxhNu-21" style="edgeStyle=orthogonalEdgeStyle;rounded=0;orthogonalLoop=1;jettySize=auto;html=1;exitX=0.5;exitY=0;exitDx=0;exitDy=0;entryX=0.5;entryY=1;entryDx=0;entryDy=0;" edge="1" parent="1" source="UezovyHCdRuaV5dCxhNu-17" target="UezovyHCdRuaV5dCxhNu-20">
          <mxGeometry relative="1" as="geometry" />
        </mxCell>
        <mxCell id="UezovyHCdRuaV5dCxhNu-17" value="&lt;b&gt;Concat&lt;/b&gt;&lt;br&gt;dim=-1" style="rounded=0;whiteSpace=wrap;html=1;fillColor=#dae8fc;strokeColor=#6c8ebf;" vertex="1" parent="1">
          <mxGeometry x="1010" y="356" width="80" height="30" as="geometry" />
        </mxCell>
        <mxCell id="UezovyHCdRuaV5dCxhNu-24" style="edgeStyle=orthogonalEdgeStyle;rounded=0;orthogonalLoop=1;jettySize=auto;html=1;exitX=0.5;exitY=0;exitDx=0;exitDy=0;entryX=0.5;entryY=1;entryDx=0;entryDy=0;" edge="1" parent="1" source="UezovyHCdRuaV5dCxhNu-20" target="UezovyHCdRuaV5dCxhNu-23">
          <mxGeometry relative="1" as="geometry" />
        </mxCell>
        <mxCell id="UezovyHCdRuaV5dCxhNu-20" value="&lt;b&gt;Linear&lt;/b&gt;&lt;br&gt;1536→768" style="rounded=0;whiteSpace=wrap;html=1;fillColor=#e1d5e7;strokeColor=#9673a6;" vertex="1" parent="1">
          <mxGeometry x="1010" y="306" width="80" height="30" as="geometry" />
        </mxCell>
        <mxCell id="UezovyHCdRuaV5dCxhNu-27" style="edgeStyle=orthogonalEdgeStyle;rounded=0;orthogonalLoop=1;jettySize=auto;html=1;exitX=0.5;exitY=0;exitDx=0;exitDy=0;entryX=0.5;entryY=1;entryDx=0;entryDy=0;" edge="1" parent="1" source="UezovyHCdRuaV5dCxhNu-23" target="UezovyHCdRuaV5dCxhNu-26">
          <mxGeometry relative="1" as="geometry" />
        </mxCell>
        <mxCell id="UezovyHCdRuaV5dCxhNu-23" value="&lt;b&gt;LayerNorm&lt;/b&gt;" style="rounded=0;whiteSpace=wrap;html=1;fillColor=#e1d5e7;strokeColor=#9673a6;" vertex="1" parent="1">
          <mxGeometry x="1010" y="256" width="80" height="30" as="geometry" />
        </mxCell>
        <mxCell id="UezovyHCdRuaV5dCxhNu-26" value="Embeddings" style="text;html=1;align=center;verticalAlign=middle;whiteSpace=wrap;rounded=0;fontStyle=1" vertex="1" parent="1">
          <mxGeometry x="1010" y="216" width="80" height="20" as="geometry" />
        </mxCell>
        <mxCell id="UezovyHCdRuaV5dCxhNu-44" style="edgeStyle=orthogonalEdgeStyle;rounded=0;orthogonalLoop=1;jettySize=auto;html=1;exitX=0.5;exitY=0;exitDx=0;exitDy=0;entryX=0.5;entryY=1;entryDx=0;entryDy=0;" edge="1" parent="1" source="UezovyHCdRuaV5dCxhNu-29" target="UezovyHCdRuaV5dCxhNu-43">
          <mxGeometry relative="1" as="geometry" />
        </mxCell>
        <mxCell id="UezovyHCdRuaV5dCxhNu-29" value="&lt;font style=&quot;font-size: 40px;&quot;&gt;&lt;span style=&quot;&quot;&gt;+&lt;/span&gt;&lt;/font&gt;" style="ellipse;whiteSpace=wrap;html=1;aspect=fixed;fontStyle=0" vertex="1" parent="1">
          <mxGeometry x="323.75" y="603.5" width="32.5" height="32.5" as="geometry" />
        </mxCell>
        <mxCell id="UezovyHCdRuaV5dCxhNu-33" style="edgeStyle=orthogonalEdgeStyle;rounded=0;orthogonalLoop=1;jettySize=auto;html=1;exitX=0.5;exitY=0;exitDx=0;exitDy=0;entryX=1;entryY=0.5;entryDx=0;entryDy=0;" edge="1" parent="1" source="UezovyHCdRuaV5dCxhNu-32" target="UezovyHCdRuaV5dCxhNu-29">
          <mxGeometry relative="1" as="geometry" />
        </mxCell>
        <mxCell id="UezovyHCdRuaV5dCxhNu-32" value="&lt;b&gt;Linear&lt;/b&gt;&lt;br&gt;64→768" style="rounded=0;whiteSpace=wrap;html=1;fillColor=#e1d5e7;strokeColor=#9673a6;" vertex="1" parent="1">
          <mxGeometry x="420" y="663.5" width="80" height="30" as="geometry" />
        </mxCell>
        <mxCell id="UezovyHCdRuaV5dCxhNu-37" style="edgeStyle=orthogonalEdgeStyle;rounded=0;orthogonalLoop=1;jettySize=auto;html=1;exitX=0.5;exitY=0;exitDx=0;exitDy=0;entryX=0.5;entryY=1;entryDx=0;entryDy=0;" edge="1" parent="1" source="UezovyHCdRuaV5dCxhNu-36" target="UezovyHCdRuaV5dCxhNu-3">
          <mxGeometry relative="1" as="geometry" />
        </mxCell>
        <mxCell id="UezovyHCdRuaV5dCxhNu-36" value="Token Sequence" style="text;html=1;align=center;verticalAlign=middle;whiteSpace=wrap;rounded=0;fontStyle=1" vertex="1" parent="1">
          <mxGeometry x="300" y="718.5" width="80" height="27.5" as="geometry" />
        </mxCell>
        <mxCell id="UezovyHCdRuaV5dCxhNu-39" style="edgeStyle=orthogonalEdgeStyle;rounded=0;orthogonalLoop=1;jettySize=auto;html=1;exitX=0.5;exitY=0;exitDx=0;exitDy=0;entryX=0.5;entryY=1;entryDx=0;entryDy=0;" edge="1" parent="1" source="UezovyHCdRuaV5dCxhNu-38" target="UezovyHCdRuaV5dCxhNu-32">
          <mxGeometry relative="1" as="geometry" />
        </mxCell>
        <mxCell id="UezovyHCdRuaV5dCxhNu-38" value="Token&lt;br&gt;pos idxes" style="text;html=1;align=center;verticalAlign=middle;whiteSpace=wrap;rounded=0;fontStyle=1" vertex="1" parent="1">
          <mxGeometry x="420" y="718.5" width="80" height="27.5" as="geometry" />
        </mxCell>
        <mxCell id="UezovyHCdRuaV5dCxhNu-43" value="Decoder layer" style="shape=process;whiteSpace=wrap;html=1;backgroundOutline=1;fillColor=#e1d5e7;strokeColor=#9673a6;" vertex="1" parent="1">
          <mxGeometry x="280" y="541" width="120" height="30" as="geometry" />
        </mxCell>
        <mxCell id="UezovyHCdRuaV5dCxhNu-47" value="" style="endArrow=none;html=1;rounded=0;exitX=0.5;exitY=0;exitDx=0;exitDy=0;" edge="1" parent="1" source="UezovyHCdRuaV5dCxhNu-43">
          <mxGeometry width="50" height="50" relative="1" as="geometry">
            <mxPoint x="390" y="503.5" as="sourcePoint" />
            <mxPoint x="340" y="523.5" as="targetPoint" />
          </mxGeometry>
        </mxCell>
        <mxCell id="UezovyHCdRuaV5dCxhNu-48" value="" style="endArrow=none;dashed=1;html=1;dashPattern=1 3;strokeWidth=2;rounded=0;" edge="1" parent="1">
          <mxGeometry width="50" height="50" relative="1" as="geometry">
            <mxPoint x="340" y="523.5" as="sourcePoint" />
            <mxPoint x="340" y="493.5" as="targetPoint" />
          </mxGeometry>
        </mxCell>
        <mxCell id="UezovyHCdRuaV5dCxhNu-49" value="" style="endArrow=classic;html=1;rounded=0;entryX=0.5;entryY=1;entryDx=0;entryDy=0;" edge="1" parent="1" target="UezovyHCdRuaV5dCxhNu-50">
          <mxGeometry width="50" height="50" relative="1" as="geometry">
            <mxPoint x="340" y="493.5" as="sourcePoint" />
            <mxPoint x="340" y="473.5" as="targetPoint" />
          </mxGeometry>
        </mxCell>
        <mxCell id="UezovyHCdRuaV5dCxhNu-53" style="edgeStyle=orthogonalEdgeStyle;rounded=0;orthogonalLoop=1;jettySize=auto;html=1;exitX=0.5;exitY=0;exitDx=0;exitDy=0;entryX=0.5;entryY=1;entryDx=0;entryDy=0;" edge="1" parent="1" source="UezovyHCdRuaV5dCxhNu-50" target="UezovyHCdRuaV5dCxhNu-52">
          <mxGeometry relative="1" as="geometry" />
        </mxCell>
        <mxCell id="UezovyHCdRuaV5dCxhNu-55" style="edgeStyle=orthogonalEdgeStyle;rounded=0;orthogonalLoop=1;jettySize=auto;html=1;exitX=0.5;exitY=0;exitDx=0;exitDy=0;entryX=0.5;entryY=1;entryDx=0;entryDy=0;" edge="1" parent="1" source="UezovyHCdRuaV5dCxhNu-50" target="UezovyHCdRuaV5dCxhNu-54">
          <mxGeometry relative="1" as="geometry" />
        </mxCell>
        <mxCell id="UezovyHCdRuaV5dCxhNu-50" value="Decoder layer" style="shape=process;whiteSpace=wrap;html=1;backgroundOutline=1;fillColor=#e1d5e7;strokeColor=#9673a6;" vertex="1" parent="1">
          <mxGeometry x="280" y="443.5" width="120" height="30" as="geometry" />
        </mxCell>
        <mxCell id="UezovyHCdRuaV5dCxhNu-59" style="edgeStyle=orthogonalEdgeStyle;rounded=0;orthogonalLoop=1;jettySize=auto;html=1;exitX=0.5;exitY=0;exitDx=0;exitDy=0;entryX=0.5;entryY=1;entryDx=0;entryDy=0;" edge="1" parent="1" source="UezovyHCdRuaV5dCxhNu-52" target="UezovyHCdRuaV5dCxhNu-56">
          <mxGeometry relative="1" as="geometry" />
        </mxCell>
        <mxCell id="UezovyHCdRuaV5dCxhNu-52" value="&lt;b&gt;Linear&lt;/b&gt;&lt;br&gt;768→2" style="rounded=0;whiteSpace=wrap;html=1;fillColor=#e1d5e7;strokeColor=#9673a6;" vertex="1" parent="1">
          <mxGeometry x="250" y="371" width="80" height="30" as="geometry" />
        </mxCell>
        <mxCell id="UezovyHCdRuaV5dCxhNu-60" style="edgeStyle=orthogonalEdgeStyle;rounded=0;orthogonalLoop=1;jettySize=auto;html=1;exitX=0.5;exitY=0;exitDx=0;exitDy=0;entryX=0.5;entryY=1;entryDx=0;entryDy=0;" edge="1" parent="1" source="UezovyHCdRuaV5dCxhNu-54" target="UezovyHCdRuaV5dCxhNu-57">
          <mxGeometry relative="1" as="geometry" />
        </mxCell>
        <mxCell id="UezovyHCdRuaV5dCxhNu-54" value="&lt;b&gt;Linear&lt;/b&gt;&lt;br&gt;768→2" style="rounded=0;whiteSpace=wrap;html=1;fillColor=#e1d5e7;strokeColor=#9673a6;" vertex="1" parent="1">
          <mxGeometry x="350" y="371" width="80" height="30" as="geometry" />
        </mxCell>
        <mxCell id="UezovyHCdRuaV5dCxhNu-62" style="edgeStyle=orthogonalEdgeStyle;rounded=0;orthogonalLoop=1;jettySize=auto;html=1;exitX=0.5;exitY=0;exitDx=0;exitDy=0;entryX=0.5;entryY=1;entryDx=0;entryDy=0;" edge="1" parent="1" source="UezovyHCdRuaV5dCxhNu-56" target="UezovyHCdRuaV5dCxhNu-61">
          <mxGeometry relative="1" as="geometry" />
        </mxCell>
        <mxCell id="UezovyHCdRuaV5dCxhNu-56" value="&lt;b&gt;Sigmoid&lt;/b&gt;" style="rounded=0;whiteSpace=wrap;html=1;fillColor=#dae8fc;strokeColor=#6c8ebf;" vertex="1" parent="1">
          <mxGeometry x="250" y="321" width="80" height="30" as="geometry" />
        </mxCell>
        <mxCell id="UezovyHCdRuaV5dCxhNu-64" style="edgeStyle=orthogonalEdgeStyle;rounded=0;orthogonalLoop=1;jettySize=auto;html=1;exitX=0.5;exitY=0;exitDx=0;exitDy=0;entryX=0.5;entryY=1;entryDx=0;entryDy=0;" edge="1" parent="1" source="UezovyHCdRuaV5dCxhNu-57" target="UezovyHCdRuaV5dCxhNu-63">
          <mxGeometry relative="1" as="geometry" />
        </mxCell>
        <mxCell id="UezovyHCdRuaV5dCxhNu-57" value="&lt;b&gt;Softmax&lt;/b&gt;" style="rounded=0;whiteSpace=wrap;html=1;fillColor=#dae8fc;strokeColor=#6c8ebf;" vertex="1" parent="1">
          <mxGeometry x="350" y="321" width="80" height="30" as="geometry" />
        </mxCell>
        <mxCell id="UezovyHCdRuaV5dCxhNu-61" value="Coordinate" style="text;html=1;align=center;verticalAlign=middle;whiteSpace=wrap;rounded=0;fontStyle=1" vertex="1" parent="1">
          <mxGeometry x="250" y="281" width="80" height="20" as="geometry" />
        </mxCell>
        <mxCell id="UezovyHCdRuaV5dCxhNu-63" value="Class" style="text;html=1;align=center;verticalAlign=middle;whiteSpace=wrap;rounded=0;fontStyle=1" vertex="1" parent="1">
          <mxGeometry x="350" y="281" width="80" height="20" as="geometry" />
        </mxCell>
        <mxCell id="UezovyHCdRuaV5dCxhNu-66" style="edgeStyle=orthogonalEdgeStyle;rounded=0;orthogonalLoop=1;jettySize=auto;html=1;exitX=1;exitY=0.5;exitDx=0;exitDy=0;entryX=0;entryY=0.5;entryDx=0;entryDy=0;" edge="1" parent="1" source="UezovyHCdRuaV5dCxhNu-65" target="UezovyHCdRuaV5dCxhNu-43">
          <mxGeometry relative="1" as="geometry">
            <Array as="points">
              <mxPoint x="250" y="511" />
              <mxPoint x="250" y="556" />
            </Array>
          </mxGeometry>
        </mxCell>
        <mxCell id="UezovyHCdRuaV5dCxhNu-67" style="edgeStyle=orthogonalEdgeStyle;rounded=0;orthogonalLoop=1;jettySize=auto;html=1;exitX=1;exitY=0.5;exitDx=0;exitDy=0;entryX=0;entryY=0.5;entryDx=0;entryDy=0;" edge="1" parent="1" source="UezovyHCdRuaV5dCxhNu-65" target="UezovyHCdRuaV5dCxhNu-50">
          <mxGeometry relative="1" as="geometry">
            <mxPoint x="190" y="509.75" as="sourcePoint" />
            <mxPoint x="280" y="457.5" as="targetPoint" />
            <Array as="points">
              <mxPoint x="250" y="511" />
              <mxPoint x="250" y="459" />
              <mxPoint x="280" y="459" />
            </Array>
          </mxGeometry>
        </mxCell>
        <mxCell id="UezovyHCdRuaV5dCxhNu-65" value="Image Sequence" style="text;html=1;align=center;verticalAlign=middle;whiteSpace=wrap;rounded=0;fontStyle=1" vertex="1" parent="1">
          <mxGeometry x="130" y="497" width="80" height="27.5" as="geometry" />
        </mxCell>
        <mxCell id="UezovyHCdRuaV5dCxhNu-70" value="" style="endArrow=none;dashed=1;html=1;dashPattern=1 3;strokeWidth=2;rounded=0;" edge="1" parent="1">
          <mxGeometry width="50" height="50" relative="1" as="geometry">
            <mxPoint x="250" y="511" as="sourcePoint" />
            <mxPoint x="300" y="511" as="targetPoint" />
          </mxGeometry>
        </mxCell>
        <mxCell id="UezovyHCdRuaV5dCxhNu-74" style="edgeStyle=orthogonalEdgeStyle;rounded=0;orthogonalLoop=1;jettySize=auto;html=1;exitX=0.5;exitY=0;exitDx=0;exitDy=0;entryX=0.5;entryY=1;entryDx=0;entryDy=0;" edge="1" parent="1" source="UezovyHCdRuaV5dCxhNu-71" target="UezovyHCdRuaV5dCxhNu-72">
          <mxGeometry relative="1" as="geometry" />
        </mxCell>
        <mxCell id="UezovyHCdRuaV5dCxhNu-71" value="&lt;b&gt;LayerNorm&lt;/b&gt;" style="rounded=0;whiteSpace=wrap;html=1;fillColor=#e1d5e7;strokeColor=#9673a6;" vertex="1" parent="1">
          <mxGeometry x="695" y="560" width="80" height="30" as="geometry" />
        </mxCell>
        <mxCell id="UezovyHCdRuaV5dCxhNu-82" style="edgeStyle=orthogonalEdgeStyle;rounded=0;orthogonalLoop=1;jettySize=auto;html=1;exitX=0.5;exitY=0;exitDx=0;exitDy=0;entryX=0.5;entryY=1;entryDx=0;entryDy=0;" edge="1" parent="1" source="UezovyHCdRuaV5dCxhNu-72" target="UezovyHCdRuaV5dCxhNu-80">
          <mxGeometry relative="1" as="geometry" />
        </mxCell>
        <mxCell id="UezovyHCdRuaV5dCxhNu-72" value="&lt;b&gt;Multi-head attention&lt;/b&gt;" style="rounded=0;whiteSpace=wrap;html=1;fillColor=#e1d5e7;strokeColor=#9673a6;" vertex="1" parent="1">
          <mxGeometry x="690" y="510" width="90" height="30" as="geometry" />
        </mxCell>
        <mxCell id="UezovyHCdRuaV5dCxhNu-79" style="edgeStyle=orthogonalEdgeStyle;rounded=0;orthogonalLoop=1;jettySize=auto;html=1;exitX=0.5;exitY=0;exitDx=0;exitDy=0;entryX=0.5;entryY=1;entryDx=0;entryDy=0;" edge="1" parent="1" source="UezovyHCdRuaV5dCxhNu-76" target="UezovyHCdRuaV5dCxhNu-71">
          <mxGeometry relative="1" as="geometry" />
        </mxCell>
        <mxCell id="UezovyHCdRuaV5dCxhNu-81" style="edgeStyle=orthogonalEdgeStyle;rounded=0;orthogonalLoop=1;jettySize=auto;html=1;exitX=0.5;exitY=0;exitDx=0;exitDy=0;entryX=1;entryY=0.5;entryDx=0;entryDy=0;" edge="1" parent="1" source="UezovyHCdRuaV5dCxhNu-76" target="UezovyHCdRuaV5dCxhNu-80">
          <mxGeometry relative="1" as="geometry">
            <Array as="points">
              <mxPoint x="735" y="610" />
              <mxPoint x="800" y="610" />
              <mxPoint x="800" y="476" />
            </Array>
          </mxGeometry>
        </mxCell>
        <mxCell id="UezovyHCdRuaV5dCxhNu-76" value="Sequence" style="text;html=1;align=center;verticalAlign=middle;whiteSpace=wrap;rounded=0;fontStyle=1" vertex="1" parent="1">
          <mxGeometry x="695" y="620" width="80" height="20" as="geometry" />
        </mxCell>
        <mxCell id="UezovyHCdRuaV5dCxhNu-88" style="edgeStyle=orthogonalEdgeStyle;rounded=0;orthogonalLoop=1;jettySize=auto;html=1;exitX=0.5;exitY=0;exitDx=0;exitDy=0;entryX=0.5;entryY=1;entryDx=0;entryDy=0;" edge="1" parent="1" source="UezovyHCdRuaV5dCxhNu-80" target="UezovyHCdRuaV5dCxhNu-87">
          <mxGeometry relative="1" as="geometry" />
        </mxCell>
        <mxCell id="UezovyHCdRuaV5dCxhNu-91" style="edgeStyle=orthogonalEdgeStyle;rounded=0;orthogonalLoop=1;jettySize=auto;html=1;exitX=0.5;exitY=0;exitDx=0;exitDy=0;entryX=1;entryY=0.5;entryDx=0;entryDy=0;" edge="1" parent="1" source="UezovyHCdRuaV5dCxhNu-80" target="UezovyHCdRuaV5dCxhNu-90">
          <mxGeometry relative="1" as="geometry">
            <Array as="points">
              <mxPoint x="735" y="450" />
              <mxPoint x="800" y="450" />
              <mxPoint x="800" y="306" />
            </Array>
          </mxGeometry>
        </mxCell>
        <mxCell id="UezovyHCdRuaV5dCxhNu-80" value="&lt;font style=&quot;font-size: 40px;&quot;&gt;&lt;span style=&quot;&quot;&gt;+&lt;/span&gt;&lt;/font&gt;" style="ellipse;whiteSpace=wrap;html=1;aspect=fixed;fontStyle=0" vertex="1" parent="1">
          <mxGeometry x="718.75" y="460" width="32.5" height="32.5" as="geometry" />
        </mxCell>
        <mxCell id="UezovyHCdRuaV5dCxhNu-92" style="edgeStyle=orthogonalEdgeStyle;rounded=0;orthogonalLoop=1;jettySize=auto;html=1;exitX=0.5;exitY=0;exitDx=0;exitDy=0;entryX=0.5;entryY=1;entryDx=0;entryDy=0;" edge="1" parent="1" source="UezovyHCdRuaV5dCxhNu-83" target="UezovyHCdRuaV5dCxhNu-90">
          <mxGeometry relative="1" as="geometry" />
        </mxCell>
        <mxCell id="UezovyHCdRuaV5dCxhNu-83" value="&lt;b&gt;Multi-head attention&lt;/b&gt;" style="rounded=0;whiteSpace=wrap;html=1;fillColor=#e1d5e7;strokeColor=#9673a6;" vertex="1" parent="1">
          <mxGeometry x="690" y="342.5" width="90" height="30" as="geometry" />
        </mxCell>
        <mxCell id="UezovyHCdRuaV5dCxhNu-86" style="edgeStyle=orthogonalEdgeStyle;rounded=0;orthogonalLoop=1;jettySize=auto;html=1;exitX=1;exitY=0.5;exitDx=0;exitDy=0;entryX=0;entryY=0.5;entryDx=0;entryDy=0;" edge="1" parent="1" source="UezovyHCdRuaV5dCxhNu-85" target="UezovyHCdRuaV5dCxhNu-83">
          <mxGeometry relative="1" as="geometry" />
        </mxCell>
        <mxCell id="UezovyHCdRuaV5dCxhNu-85" value="Encoder&lt;br&gt;Sequence" style="text;html=1;align=center;verticalAlign=middle;whiteSpace=wrap;rounded=0;fontStyle=1" vertex="1" parent="1">
          <mxGeometry x="580" y="347.5" width="80" height="20" as="geometry" />
        </mxCell>
        <mxCell id="UezovyHCdRuaV5dCxhNu-89" style="edgeStyle=orthogonalEdgeStyle;rounded=0;orthogonalLoop=1;jettySize=auto;html=1;exitX=0.5;exitY=0;exitDx=0;exitDy=0;entryX=0.5;entryY=1;entryDx=0;entryDy=0;" edge="1" parent="1" source="UezovyHCdRuaV5dCxhNu-87" target="UezovyHCdRuaV5dCxhNu-83">
          <mxGeometry relative="1" as="geometry" />
        </mxCell>
        <mxCell id="UezovyHCdRuaV5dCxhNu-87" value="&lt;b&gt;LayerNorm&lt;/b&gt;" style="rounded=0;whiteSpace=wrap;html=1;fillColor=#e1d5e7;strokeColor=#9673a6;" vertex="1" parent="1">
          <mxGeometry x="695" y="395" width="80" height="30" as="geometry" />
        </mxCell>
        <mxCell id="UezovyHCdRuaV5dCxhNu-94" style="edgeStyle=orthogonalEdgeStyle;rounded=0;orthogonalLoop=1;jettySize=auto;html=1;exitX=0.5;exitY=0;exitDx=0;exitDy=0;entryX=0.5;entryY=1;entryDx=0;entryDy=0;" edge="1" parent="1" source="UezovyHCdRuaV5dCxhNu-90" target="UezovyHCdRuaV5dCxhNu-93">
          <mxGeometry relative="1" as="geometry" />
        </mxCell>
        <mxCell id="UezovyHCdRuaV5dCxhNu-103" style="edgeStyle=orthogonalEdgeStyle;rounded=0;orthogonalLoop=1;jettySize=auto;html=1;exitX=0.5;exitY=0;exitDx=0;exitDy=0;entryX=1;entryY=0.5;entryDx=0;entryDy=0;" edge="1" parent="1" source="UezovyHCdRuaV5dCxhNu-90" target="UezovyHCdRuaV5dCxhNu-101">
          <mxGeometry relative="1" as="geometry">
            <Array as="points">
              <mxPoint x="735" y="280" />
              <mxPoint x="800" y="280" />
              <mxPoint x="800" y="146" />
            </Array>
          </mxGeometry>
        </mxCell>
        <mxCell id="UezovyHCdRuaV5dCxhNu-90" value="&lt;font style=&quot;font-size: 40px;&quot;&gt;&lt;span style=&quot;&quot;&gt;+&lt;/span&gt;&lt;/font&gt;" style="ellipse;whiteSpace=wrap;html=1;aspect=fixed;fontStyle=0" vertex="1" parent="1">
          <mxGeometry x="718.75" y="290" width="32.5" height="32.5" as="geometry" />
        </mxCell>
        <mxCell id="UezovyHCdRuaV5dCxhNu-96" style="edgeStyle=orthogonalEdgeStyle;rounded=0;orthogonalLoop=1;jettySize=auto;html=1;exitX=0.5;exitY=0;exitDx=0;exitDy=0;entryX=0.5;entryY=1;entryDx=0;entryDy=0;" edge="1" parent="1" source="UezovyHCdRuaV5dCxhNu-93" target="UezovyHCdRuaV5dCxhNu-95">
          <mxGeometry relative="1" as="geometry" />
        </mxCell>
        <mxCell id="UezovyHCdRuaV5dCxhNu-93" value="&lt;b&gt;LayerNorm&lt;/b&gt;" style="rounded=0;whiteSpace=wrap;html=1;fillColor=#e1d5e7;strokeColor=#9673a6;" vertex="1" parent="1">
          <mxGeometry x="695" y="230" width="80" height="30" as="geometry" />
        </mxCell>
        <mxCell id="UezovyHCdRuaV5dCxhNu-102" style="edgeStyle=orthogonalEdgeStyle;rounded=0;orthogonalLoop=1;jettySize=auto;html=1;exitX=0.5;exitY=0;exitDx=0;exitDy=0;entryX=0.5;entryY=1;entryDx=0;entryDy=0;" edge="1" parent="1" source="UezovyHCdRuaV5dCxhNu-95" target="UezovyHCdRuaV5dCxhNu-101">
          <mxGeometry relative="1" as="geometry" />
        </mxCell>
        <mxCell id="UezovyHCdRuaV5dCxhNu-95" value="&lt;b&gt;FFN&lt;/b&gt;&lt;br&gt;768→2384→768" style="rounded=0;whiteSpace=wrap;html=1;fillColor=#e1d5e7;strokeColor=#9673a6;" vertex="1" parent="1">
          <mxGeometry x="682.5" y="180" width="105" height="30" as="geometry" />
        </mxCell>
        <mxCell id="UezovyHCdRuaV5dCxhNu-105" style="edgeStyle=orthogonalEdgeStyle;rounded=0;orthogonalLoop=1;jettySize=auto;html=1;exitX=0.5;exitY=0;exitDx=0;exitDy=0;entryX=0.5;entryY=1;entryDx=0;entryDy=0;" edge="1" parent="1" source="UezovyHCdRuaV5dCxhNu-101" target="UezovyHCdRuaV5dCxhNu-104">
          <mxGeometry relative="1" as="geometry" />
        </mxCell>
        <mxCell id="UezovyHCdRuaV5dCxhNu-101" value="&lt;font style=&quot;font-size: 40px;&quot;&gt;&lt;span style=&quot;&quot;&gt;+&lt;/span&gt;&lt;/font&gt;" style="ellipse;whiteSpace=wrap;html=1;aspect=fixed;fontStyle=0" vertex="1" parent="1">
          <mxGeometry x="718.75" y="130" width="32.5" height="32.5" as="geometry" />
        </mxCell>
        <mxCell id="UezovyHCdRuaV5dCxhNu-104" value="Sequence" style="text;html=1;align=center;verticalAlign=middle;whiteSpace=wrap;rounded=0;fontStyle=1" vertex="1" parent="1">
          <mxGeometry x="695" y="90" width="80" height="20" as="geometry" />
        </mxCell>
        <mxCell id="UezovyHCdRuaV5dCxhNu-108" value="" style="shape=curlyBracket;whiteSpace=wrap;html=1;rounded=1;flipH=1;labelPosition=right;verticalLabelPosition=middle;align=left;verticalAlign=middle;" vertex="1" parent="1">
          <mxGeometry x="410" y="443" width="20" height="127.75" as="geometry" />
        </mxCell>
        <mxCell id="UezovyHCdRuaV5dCxhNu-109" value="x6" style="text;html=1;align=center;verticalAlign=middle;whiteSpace=wrap;rounded=0;" vertex="1" parent="1">
          <mxGeometry x="423" y="491" width="30" height="30" as="geometry" />
        </mxCell>
        <mxCell id="UezovyHCdRuaV5dCxhNu-112" value="" style="edgeStyle=orthogonalEdgeStyle;rounded=0;orthogonalLoop=1;jettySize=auto;html=1;exitX=0.5;exitY=0;exitDx=0;exitDy=0;entryX=0.5;entryY=1;entryDx=0;entryDy=0;" edge="1" parent="1" source="UezovyHCdRuaV5dCxhNu-10" target="UezovyHCdRuaV5dCxhNu-111">
          <mxGeometry relative="1" as="geometry">
            <mxPoint x="1100" y="486" as="sourcePoint" />
            <mxPoint x="1100" y="446" as="targetPoint" />
          </mxGeometry>
        </mxCell>
        <mxCell id="UezovyHCdRuaV5dCxhNu-111" value="&lt;b&gt;To one-hot&lt;/b&gt;" style="rounded=0;whiteSpace=wrap;html=1;fillColor=#dae8fc;strokeColor=#6c8ebf;" vertex="1" parent="1">
          <mxGeometry x="1060" y="468.5" width="80" height="17.5" as="geometry" />
        </mxCell>
      </root>
    </mxGraphModel>
  </diagram>
</mxfile>
